<svg xmlns="http://www.w3.org/2000/svg" viewBox="0 0 687.14 101.73" width="100%" height="100%"><path d="M137.31,46.83l-15.44-22.64c-1.6-2.46-3.12-4.17-4.54-5.15-1.43-.97-3.09-1.46-4.97-1.46-.17,0-.26-.17-.26-.51s.09-.51.26-.51c.97,0,2,.04,3.09.13,1.08.09,2.09.13,3,.13,1.54,0,3.04-.01,4.5-.04,1.46-.03,2.83-.07,4.12-.13,1.29-.06,2.41-.09,3.39-.09.11,0,.17.17.17.51s-.06.51-.17.51c-2.23,0-3.62.31-4.16.94-.54.63-.36,1.6.56,2.92l14.66,21.52-4.2,3.86ZM136.11,43.57l5.57-.77v20.41c0,1.66.17,2.92.51,3.77.34.86,1.03,1.43,2.06,1.72,1.03.29,2.6.43,4.72.43.17,0,.26.17.26.51s-.09.51-.26.51c-1.37,0-2.9-.03-4.59-.09-1.69-.06-3.53-.09-5.53-.09-1.89,0-3.72.03-5.49.09-1.77.06-3.32.09-4.63.09-.17,0-.26-.17-.26-.51s.09-.51.26-.51c2.06,0,3.63-.14,4.72-.43,1.09-.29,1.8-.86,2.14-1.72.34-.86.51-2.11.51-3.77v-19.64ZM138.25,45.46l12.86-19.72c1.66-2.69,2.26-4.72,1.8-6.09-.46-1.37-1.97-2.06-4.54-2.06-.12,0-.17-.17-.17-.51s.06-.51.17-.51c1.54,0,3.03.04,4.46.13,1.43.09,3.29.13,5.57.13,1.43,0,2.59-.04,3.47-.13.89-.09,1.96-.13,3.22-.13.11,0,.17.17.17.51s-.06.51-.17.51c-1.37,0-2.77.34-4.2,1.03-1.43.69-2.79,1.66-4.07,2.92-1.29,1.26-2.5,2.77-3.64,4.54l-13.46,20.67-1.46-1.29Z" fill="#F4F5F6"/><path d="M166.55,70.76c-1.83,0-3.2-.5-4.12-1.5-.92-1-1.37-2.16-1.37-3.47,0-1.6.63-2.87,1.89-3.82,1.26-.94,3.31-1.9,6.17-2.87l11.23-4.03.26.94-9.95,3.77c-1.32.51-2.24,1.09-2.79,1.72-.54.63-.81,1.43-.81,2.4,0,1.2.34,2.13,1.03,2.79.69.66,1.57.99,2.66.99.63,0,1.23-.07,1.8-.21.57-.14,1.14-.36,1.71-.64l7.29-3.69.17,1.03-7.46,4.03c-1.71.86-3.14,1.5-4.29,1.93-1.14.43-2.29.64-3.43.64ZM183.36,70.67c-.23.11-.46.17-.69.17-.74,0-1.46-.62-2.14-1.84s-1.03-3.01-1.03-5.36v-15.35c0-2.69-.24-4.77-.73-6.26-.49-1.49-1.14-2.52-1.97-3.09-.83-.57-1.76-.86-2.79-.86-1.43,0-2.6.36-3.52,1.07-.92.72-1.6,1.62-2.06,2.7-.46,1.09-.77,2.17-.94,3.26-.06.8-.3,1.54-.73,2.23s-1.24,1.03-2.44,1.03c-.92,0-1.63-.23-2.14-.69-.51-.46-.77-1.08-.77-1.89,0-1.03.51-2.1,1.54-3.22,1.03-1.11,2.33-2.14,3.9-3.09,1.57-.94,3.23-1.71,4.97-2.32,1.74-.6,3.39-.9,4.93-.9,2.17,0,3.97.76,5.4,2.27,1.43,1.52,2.14,3.9,2.14,7.16v15.18c0,2,.26,3.46.77,4.37.51.92,1.34,1.37,2.49,1.37,1.03,0,2.46-.37,4.29-1.11.29-.11.48-.01.6.3.11.31.03.53-.26.64l-8.83,4.2Z" fill="#F4F5F6"/><path d="M200.94,42.29c0,1.49.39,2.74,1.16,3.77.77,1.03,1.74,1.9,2.92,2.62,1.17.72,2.41,1.42,3.73,2.1,1.49.74,2.89,1.53,4.2,2.36,1.31.83,2.4,1.83,3.26,3,.86,1.17,1.29,2.7,1.29,4.59s-.46,3.53-1.37,5.1c-.92,1.57-2.27,2.84-4.07,3.82-1.8.97-4.02,1.46-6.65,1.46-1.43,0-2.8-.19-4.12-.56-1.32-.37-2.69-1.04-4.12-2.02-.12-.11-.23-.26-.34-.43-.12-.17-.17-.37-.17-.6l-.17-6.69c0-.17.16-.27.47-.3.31-.03.5.04.56.21.69,1.94,1.54,3.56,2.57,4.84,1.03,1.29,2.2,2.26,3.52,2.92,1.31.66,2.71.99,4.2.99,1.83,0,3.24-.46,4.24-1.37,1-.91,1.47-2.26,1.42-4.03-.06-1.66-.49-3-1.29-4.03-.8-1.03-1.79-1.9-2.96-2.62-1.17-.71-2.39-1.39-3.64-2.02-1.43-.69-2.79-1.42-4.07-2.19-1.29-.77-2.34-1.76-3.17-2.96-.83-1.2-1.24-2.77-1.24-4.72,0-2.23.57-4.04,1.71-5.45,1.14-1.4,2.6-2.43,4.37-3.09,1.77-.66,3.63-.99,5.57-.99,1.09,0,2.14.09,3.17.26,1.03.17,2.06.51,3.09,1.03.51.17.77.49.77.94,0,.92-.03,1.87-.09,2.87-.06,1-.09,2.13-.09,3.39,0,.12-.17.17-.51.17s-.51-.06-.51-.17c0-1.31-.46-2.49-1.37-3.52-.92-1.03-2.06-1.84-3.43-2.44s-2.74-.9-4.12-.9-2.5.37-3.39,1.11c-.89.74-1.33,1.92-1.33,3.52Z" fill="#F4F5F6"/><path d="M225.2,70.16c-.17,0-.26-.17-.26-.51s.09-.51.26-.51c2.23,0,3.67-.39,4.33-1.16.66-.77.99-2.36.99-4.76v-16.98c0-1.89-.21-3.27-.64-4.16-.43-.89-1.22-1.33-2.36-1.33-.57,0-1.24.12-2.02.34-.77.23-1.64.54-2.62.94-.23.06-.42-.06-.56-.34-.14-.29-.1-.48.13-.6l9.95-4.72c.17-.06.34-.09.51-.09.4,0,.91.6,1.54,1.8.63,1.2.94,2.95.94,5.23v19.89c0,2.4.33,3.99.99,4.76.66.77,2.1,1.16,4.33,1.16.17,0,.26.17.26.51s-.09.51-.26.51c-.97,0-2.13-.03-3.47-.09-1.34-.06-2.76-.09-4.24-.09s-2.92.03-4.29.09c-1.37.06-2.54.09-3.52.09ZM247.24,70.16c-.17,0-.26-.17-.26-.51s.09-.51.26-.51c2.23,0,3.67-.39,4.33-1.16.66-.77.99-2.36.99-4.76v-13.63c0-6.69-2.43-10.03-7.29-10.03-2.06,0-4.1.67-6.13,2.02-2.03,1.34-3.82,3.16-5.36,5.44l-.34-1.03c2.4-3.43,4.8-5.92,7.2-7.46s4.86-2.31,7.37-2.31c2.97,0,5.29.83,6.95,2.49,1.66,1.66,2.49,4.23,2.49,7.72v16.81c0,2.4.33,3.99.99,4.76.66.77,2.13,1.16,4.42,1.16.17,0,.26.17.26.51s-.09.51-.26.51c-1.03,0-2.22-.03-3.56-.09-1.34-.06-2.76-.09-4.24-.09s-2.92.03-4.29.09c-1.37.06-2.54.09-3.52.09ZM269.37,70.16c-.17,0-.26-.17-.26-.51s.09-.51.26-.51c2.23,0,3.69-.39,4.37-1.16.69-.77,1.03-2.36,1.03-4.76v-13.63c0-6.69-2.46-10.03-7.37-10.03-2.06,0-4.1.67-6.13,2.02-2.03,1.34-3.82,3.16-5.36,5.44l-.34-1.03c2.46-3.43,4.89-5.92,7.29-7.46,2.4-1.54,4.86-2.31,7.37-2.31,2.97,0,5.27.84,6.9,2.53,1.63,1.69,2.44,4.3,2.44,7.85v16.64c0,2.4.33,3.99.99,4.76.66.77,2.13,1.16,4.42,1.16.17,0,.26.17.26.51s-.09.51-.26.51c-.97,0-2.14-.03-3.52-.09-1.37-.06-2.8-.09-4.29-.09s-2.9.03-4.24.09c-1.34.06-2.53.09-3.56.09Z" fill="#F4F5F6"/><path d="M291.32,70.16c-.12,0-.17-.17-.17-.51s.06-.51.17-.51c2.23,0,3.7-.39,4.42-1.16.71-.77,1.07-2.36,1.07-4.76v-16.04c0-2-.2-3.47-.6-4.42-.4-.94-1.14-1.41-2.23-1.41-.46,0-1,.1-1.63.3-.63.2-1.37.5-2.23.9-.23.06-.42-.07-.56-.39-.14-.31-.13-.53.04-.64l11.15-5.15c.17-.06.29-.09.34-.09.11,0,.26.07.43.21.17.14.26.3.26.47,0,.46-.03,1.57-.09,3.34-.06,1.77-.09,4.03-.09,6.77v16.12c0,2.4.33,3.99.99,4.76.66.77,2.13,1.16,4.42,1.16.17,0,.26.17.26.51s-.09.51-.26.51c-1.03,0-2.22-.03-3.56-.09-1.34-.06-2.76-.09-4.25-.09s-2.9.03-4.24.09c-1.34.06-2.56.09-3.64.09ZM298.52,26.25c-1.2,0-2.13-.31-2.79-.94-.66-.63-.99-1.51-.99-2.66s.33-2.03.99-2.66c.66-.63,1.59-.94,2.79-.94s2.03.31,2.66.94c.63.63.94,1.52.94,2.66,0,2.4-1.2,3.6-3.6,3.6Z" fill="#F4F5F6"/><path d="M314.04,70.16c-.17,0-.26-.17-.26-.51s.09-.51.26-.51c2.23,0,3.67-.39,4.33-1.16.66-.77.99-2.36.99-4.76v-16.98c0-1.89-.21-3.27-.64-4.16-.43-.89-1.22-1.33-2.36-1.33-.57,0-1.24.12-2.02.34-.77.23-1.64.54-2.62.94-.23.06-.42-.06-.56-.34-.14-.29-.1-.48.13-.6l9.95-4.72c.17-.06.34-.09.51-.09.4,0,.91.6,1.54,1.8.63,1.2.94,2.95.94,5.23v19.89c0,2.4.33,3.99.99,4.76.66.77,2.1,1.16,4.33,1.16.17,0,.26.17.26.51s-.09.51-.26.51c-.97,0-2.13-.03-3.47-.09-1.34-.06-2.76-.09-4.24-.09s-2.92.03-4.29.09c-1.37.06-2.54.09-3.52.09ZM337.11,70.16c-.17,0-.26-.17-.26-.51s.09-.51.26-.51c2.23,0,3.67-.39,4.33-1.16.66-.77.99-2.36.99-4.76v-13.89c0-3.43-.63-5.93-1.89-7.5-1.26-1.57-3.26-2.36-6-2.36-2.06,0-4.17.66-6.35,1.97-2.17,1.32-4.03,3.12-5.57,5.4l-.34-1.03c2.52-3.37,5.02-5.86,7.5-7.46,2.49-1.6,5.02-2.4,7.59-2.4,3.14,0,5.59.87,7.33,2.62,1.74,1.74,2.62,4.36,2.62,7.85v16.81c0,2.4.33,3.99.99,4.76.66.77,2.1,1.16,4.33,1.16.17,0,.26.17.26.51s-.09.51-.26.51c-.97,0-2.13-.03-3.47-.09-1.34-.06-2.76-.09-4.25-.09s-2.92.03-4.29.09c-1.37.06-2.54.09-3.52.09Z" fill="#F4F5F6"/><path d="M434.52,69.13c.23,0,.34.17.34.51s-.12.51-.34.51c-1.66,0-3.34-.06-5.06-.17-1.71-.11-3.37-.17-4.97-.17-1.77,0-3.32.06-4.63.17-1.32.12-2.77.17-4.37.17-.23,0-.34-.17-.34-.51s.11-.51.34-.51c3.03,0,4.92-.44,5.66-1.33.74-.89.54-2.56-.6-5.02l-19.04-40.22,2.14-2.66-16.64,39.36c-1.43,3.49-1.52,6-.26,7.55,1.26,1.54,3.74,2.32,7.46,2.32.29,0,.43.17.43.51s-.14.51-.43.51c-1.71,0-3.29-.06-4.72-.17-1.43-.11-3.23-.17-5.4-.17-2.06,0-3.7.06-4.93.17-1.23.12-2.73.17-4.5.17-.23,0-.34-.17-.34-.51s.12-.51.34-.51c1.54,0,2.89-.3,4.03-.9,1.14-.6,2.21-1.66,3.22-3.17,1-1.51,2.1-3.7,3.3-6.56l18.09-42.7c.11-.17.31-.26.6-.26s.46.09.51.26l20.24,42.62c1.31,2.8,2.49,4.99,3.52,6.56,1.03,1.57,2.04,2.66,3.04,3.26,1,.6,2.1.9,3.3.9ZM392.84,41.77l1.29-1.8h17.67l.6,1.8h-19.55Z" fill="#F4F5F6"/><path d="M454.58,71.18c-3.89,0-7.06-.84-9.52-2.53-2.46-1.69-4.27-3.83-5.45-6.43-1.17-2.6-1.76-5.24-1.76-7.93,0-2.86.56-5.4,1.67-7.63,1.12-2.23,2.59-4.12,4.42-5.66,1.83-1.54,3.86-2.71,6.09-3.52,2.23-.8,4.4-1.2,6.52-1.2,1.66,0,3.24.21,4.76.64,1.51.43,2.77,1.04,3.77,1.84,1,.8,1.5,1.71,1.5,2.74,0,.74-.26,1.39-.77,1.93-.51.54-1.26.81-2.23.81-.92,0-1.67-.29-2.27-.86-.6-.57-1.1-1.23-1.5-1.97-.63-1.03-1.37-1.86-2.23-2.49-.86-.63-2.14-.94-3.86-.94-3.26,0-5.78,1.27-7.55,3.82-1.77,2.54-2.66,5.85-2.66,9.9,0,2.92.5,5.63,1.5,8.15,1,2.52,2.56,4.53,4.67,6.05,2.11,1.52,4.86,2.27,8.23,2.27,1.54,0,3.06-.2,4.54-.6,1.49-.4,2.89-1.14,4.2-2.23.11-.11.27-.06.47.17.2.23.24.4.13.51-2,1.77-4,3.07-6,3.9-2,.83-4.23,1.24-6.69,1.24Z" fill="#F4F5F6"/><path d="M479.71,70.76c-1.83,0-3.2-.5-4.12-1.5-.92-1-1.37-2.16-1.37-3.47,0-1.6.63-2.87,1.89-3.82,1.26-.94,3.32-1.9,6.17-2.87l11.23-4.03.26.94-9.95,3.77c-1.32.51-2.24,1.09-2.79,1.72-.54.63-.81,1.43-.81,2.4,0,1.2.34,2.13,1.03,2.79.69.66,1.57.99,2.66.99.63,0,1.23-.07,1.8-.21.57-.14,1.14-.36,1.71-.64l7.29-3.69.17,1.03-7.46,4.03c-1.71.86-3.14,1.5-4.29,1.93-1.14.43-2.29.64-3.43.64ZM496.52,70.67c-.23.11-.46.17-.69.17-.74,0-1.46-.62-2.14-1.84-.69-1.23-1.03-3.01-1.03-5.36v-15.35c0-2.69-.24-4.77-.73-6.26-.49-1.49-1.14-2.52-1.97-3.09-.83-.57-1.76-.86-2.79-.86-1.43,0-2.6.36-3.52,1.07-.92.72-1.6,1.62-2.06,2.7-.46,1.09-.77,2.17-.94,3.26-.06.8-.3,1.54-.73,2.23s-1.24,1.03-2.44,1.03c-.92,0-1.63-.23-2.14-.69-.51-.46-.77-1.08-.77-1.89,0-1.03.51-2.1,1.54-3.22,1.03-1.11,2.33-2.14,3.9-3.09,1.57-.94,3.23-1.71,4.97-2.32,1.74-.6,3.39-.9,4.93-.9,2.17,0,3.97.76,5.4,2.27,1.43,1.52,2.14,3.9,2.14,7.16v15.18c0,2,.26,3.46.77,4.37.51.92,1.34,1.37,2.49,1.37,1.03,0,2.46-.37,4.29-1.11.29-.11.49-.01.6.3.11.31.03.53-.26.64l-8.83,4.2Z" fill="#F4F5F6"/><path d="M521.98,71.27c-2.34,0-4.54-.69-6.6-2.06s-3.7-3.27-4.93-5.7c-1.23-2.43-1.84-5.3-1.84-8.62s.61-6.07,1.84-8.45c1.23-2.37,2.82-4.33,4.76-5.87s4.06-2.7,6.35-3.47c2.29-.77,4.49-1.16,6.6-1.16,2,0,3.89.34,5.66,1.03,1.77.69,3.37,1.63,4.8,2.83l-.94,5.75c-1.43-2.23-3.03-4.1-4.8-5.62-1.77-1.51-4.12-2.27-7.03-2.27-3.49,0-6.3,1.24-8.45,3.73-2.14,2.49-3.21,6.13-3.21,10.93,0,3.26.48,6.07,1.46,8.45.97,2.37,2.32,4.2,4.03,5.49,1.72,1.29,3.6,1.93,5.66,1.93,2.57,0,4.86-.71,6.86-2.14,2-1.43,3.89-3.14,5.66-5.15l.69.6c-1.2,1.37-2.6,2.82-4.2,4.33-1.6,1.52-3.42,2.8-5.45,3.86-2.03,1.06-4.33,1.59-6.9,1.59ZM541.19,8.67v52.05c0,2.06.23,3.55.69,4.46.46.92,1.26,1.37,2.4,1.37.57,0,1.24-.07,2.02-.21.77-.14,1.59-.47,2.44-.99.29-.11.5-.01.64.3.14.31.1.53-.13.64l-9.43,4.46c-.23.11-.46.17-.69.17-.69,0-1.32-.66-1.89-1.97-.57-1.31-.86-3.23-.86-5.75V18.96c0-2.06-.2-3.54-.6-4.46-.4-.91-1.14-1.37-2.23-1.37-.51,0-1.07.1-1.67.3-.6.2-1.36.5-2.27.9-.23.12-.42,0-.56-.34-.14-.34-.13-.54.04-.6l10.89-5.32c.11-.06.26-.09.43-.09s.34.07.51.21c.17.14.26.3.26.47Z" fill="#F4F5F6"/><path d="M568.63,71.18c-3.54,0-6.52-.79-8.92-2.36s-4.2-3.61-5.4-6.13c-1.2-2.51-1.8-5.17-1.8-7.97,0-3.49.81-6.62,2.44-9.39,1.63-2.77,3.83-4.97,6.6-6.6,2.77-1.63,5.9-2.44,9.39-2.44,3.14,0,5.56.76,7.25,2.27,1.69,1.52,2.53,3.59,2.53,6.22,0,.63-.06,1.11-.17,1.46-.11.34-.4.51-.86.51h-4.97c.23-2.8-.27-4.96-1.5-6.47-1.23-1.51-2.96-2.27-5.19-2.27-3.2,0-5.65,1.2-7.33,3.6-1.69,2.4-2.53,5.66-2.53,9.78,0,3.26.53,6.15,1.59,8.66,1.06,2.52,2.6,4.5,4.63,5.96,2.03,1.46,4.44,2.19,7.25,2.19,1.49,0,3-.23,4.54-.69,1.54-.46,3-1.17,4.37-2.14.11-.11.27-.04.47.21.2.26.24.47.13.64-2.06,1.77-4.12,3.04-6.17,3.82-2.06.77-4.17,1.16-6.35,1.16ZM556.63,46.92l-.09-1.11,19.55-.43v1.37l-19.46.17Z" fill="#F4F5F6"/><path d="M588.27,70.16c-.17,0-.26-.17-.26-.51s.09-.51.26-.51c2.23,0,3.67-.39,4.33-1.16.66-.77.99-2.36.99-4.76v-16.98c0-1.89-.21-3.27-.64-4.16-.43-.89-1.21-1.33-2.36-1.33-.57,0-1.24.12-2.01.34-.77.23-1.64.54-2.62.94-.23.06-.42-.06-.56-.34-.14-.29-.1-.48.13-.6l9.95-4.72c.17-.06.34-.09.51-.09.4,0,.91.6,1.54,1.8.63,1.2.94,2.95.94,5.23v19.89c0,2.4.33,3.99.99,4.76.66.77,2.1,1.16,4.33,1.16.17,0,.26.17.26.51s-.09.51-.26.51c-.97,0-2.13-.03-3.47-.09-1.34-.06-2.76-.09-4.24-.09s-2.92.03-4.29.09c-1.37.06-2.54.09-3.52.09ZM610.31,70.16c-.17,0-.26-.17-.26-.51s.09-.51.26-.51c2.23,0,3.67-.39,4.33-1.16.66-.77.99-2.36.99-4.76v-13.63c0-6.69-2.43-10.03-7.29-10.03-2.06,0-4.1.67-6.13,2.02-2.03,1.34-3.82,3.16-5.36,5.44l-.34-1.03c2.4-3.43,4.8-5.92,7.2-7.46s4.86-2.31,7.37-2.31c2.97,0,5.29.83,6.95,2.49,1.66,1.66,2.49,4.23,2.49,7.72v16.81c0,2.4.33,3.99.99,4.76.66.77,2.13,1.16,4.42,1.16.17,0,.26.17.26.51s-.09.51-.26.51c-1.03,0-2.22-.03-3.56-.09-1.34-.06-2.76-.09-4.24-.09s-2.92.03-4.29.09c-1.37.06-2.54.09-3.52.09ZM632.43,70.16c-.17,0-.26-.17-.26-.51s.09-.51.26-.51c2.23,0,3.69-.39,4.37-1.16.69-.77,1.03-2.36,1.03-4.76v-13.63c0-6.69-2.46-10.03-7.38-10.03-2.06,0-4.1.67-6.13,2.02-2.03,1.34-3.82,3.16-5.36,5.44l-.34-1.03c2.46-3.43,4.89-5.92,7.29-7.46,2.4-1.54,4.86-2.31,7.38-2.31,2.97,0,5.27.84,6.9,2.53,1.63,1.69,2.44,4.3,2.44,7.85v16.64c0,2.4.33,3.99.99,4.76.66.77,2.13,1.16,4.42,1.16.17,0,.26.17.26.51s-.08.51-.26.51c-.97,0-2.14-.03-3.52-.09-1.37-.06-2.8-.09-4.29-.09s-2.9.03-4.24.09c-1.34.06-2.53.09-3.56.09Z" fill="#F4F5F6"/><path d="M686.79,37.06c.17,0,.26.17.26.51s-.09.51-.26.51c-1.43,0-2.66.49-3.69,1.46-1.03.97-2,2.69-2.92,5.15l-10.46,27.87c-2.06,5.49-4.03,9.82-5.92,12.99s-3.85,5.42-5.87,6.73c-2.03,1.31-4.27,1.97-6.73,1.97-1.2,0-2.23-.27-3.09-.81-.86-.54-1.29-1.39-1.29-2.53,0-.86.27-1.5.81-1.93.54-.43,1.16-.64,1.84-.64,1.14,0,2,.17,2.57.51.57.34,1.14.69,1.71,1.03.57.34,1.31.51,2.23.51,1.37,0,2.7-.64,3.99-1.93,1.29-1.29,2.67-3.47,4.16-6.56,1.49-3.09,3.23-7.29,5.23-12.61l-.08,2.4-13.55-27.53c-1.26-2.51-2.24-4.16-2.96-4.93s-1.62-1.16-2.7-1.16c-.12,0-.17-.17-.17-.51s.06-.51.17-.51c.91,0,1.87.03,2.87.09,1,.06,1.96.09,2.87.09,1.89,0,3.54-.03,4.97-.09,1.43-.06,2.71-.09,3.86-.09.11,0,.17.17.17.51s-.06.51-.17.51c-1.83,0-3.22.23-4.16.69-.94.46-1.07,1.34-.39,2.66l11.75,24.18-1.97,3.52,8.4-24.18c.86-2.57.84-4.36-.04-5.36-.89-1-2.84-1.5-5.87-1.5-.12,0-.17-.17-.17-.51s.06-.51.17-.51c1.37,0,2.67.03,3.9.09,1.23.06,2.82.09,4.76.09,1.26,0,2.27-.03,3.04-.09.77-.06,1.67-.09,2.7-.09Z" fill="#F4F5F6"/><g id="yasmin-container"><path id="yasmin" d="M99.27,27.93c.04-.35-.16-.69-.49-.83-1.66-.7-3.32-1.18-4.99-1.45.75-2.59.52-4.83.3-6.82-.26-2.38-.48-4.43.77-6.9.03-.06.05-.13.07-.19h0c.02-.09.02-.18,0-.27,0-.02,0-.04-.01-.06-.02-.08-.04-.17-.09-.25,0,0,0,0-.01-.01,0,0,0,0,0-.01,0,0-.02-.01-.02-.02-.05-.07-.11-.13-.18-.18-.01-.01-.03-.02-.04-.03-.08-.05-.16-.09-.25-.11-.02,0-.04,0-.05,0-.04,0-.07-.02-.11-.02-4.28-.15-7.61.5-10.15,1.99-.37-1.5-.76-2.81-1.08-3.78-.25-.74-.31-1.51-.19-2.26.5-3.13-.16-5.36-1.86-6.26-1.61-.86-6.05-.4-10.35,1.06-4.12,1.4-11.55,4.88-14.96,12.41-.75,1.65-1.29,3.2-1.69,4.66-1.08-3-3.44-7.22-8.6-10.39-6.88-4.24-14.88-3.16-18-2.5-.83.18-1.68.19-2.5.03-2.43-.45-5.64-.62-7.17,1.09,0,0-.01.01-.02.02,0,0,0,0,0,0-1.61,1.85-.32,6.71,1.04,10.47.27.74.4,1.51.4,2.29,0,1.08.04,2.6.2,4.29-4.11-2.72-9.83-3.95-18.14-3.95-.1,0-.21,0-.31,0,0,0-.02,0-.02,0-.02,0-.04,0-.06,0-.08,0-.15.03-.22.06-.03.01-.05.02-.07.04-.06.03-.12.07-.17.12-.02.02-.04.04-.06.06-.05.06-.1.13-.13.21,0,.01-.02.02-.02.03,0,0,0,0,0,0,0,0,0,0,0,0-.03.09-.04.19-.04.28,0,.03,0,.05.01.08,0,.07.02.13.05.19.01.03.03.06.04.09.03.06.07.11.11.16.02.02.04.05.06.07.01,0,.02.02.03.03,2.3,1.78,3.32,5.13,4.52,9.02,1.36,4.43,2.89,9.42,6.79,13-.61.59-1.23,1.22-1.83,1.88-.15.16-.22.37-.21.58,0,.21.1.42.26.56,4.07,3.68,8.44,5.75,13,6.2-.08.22-.16.42-.24.65-2.13,6.64-1.33,12.95-.66,16.12.3,1.4.22,2.92-.22,4.39-1.58,5.25-.56,9,2.87,10.56,1.17.53,2.43.75,3.71.75,2.74,0,5.6-1.01,7.9-2.1-1.18,6-1.44,12.06-.76,18.04,0,.02.01.03.01.04.02.1.05.19.1.27.02.04.05.06.08.09.03.04.06.09.1.12.02.02.04.02.06.03.01,0,.02.02.03.03.03.02.07.03.1.04.02.01.05.02.07.03.08.02.16.04.24.04h0c.1,0,.2-.02.29-.05,12.31-4.76,19.21-10.64,21.63-18.42,1.84.88,4.02,1.49,6.55,1.81.03,0,.07,0,.1,0,.32,0,.62-.19.74-.5.44-1.05.8-2.08,1.11-3.09,5.4,4.97,13.41,9.47,25.05,14.07.01,0,.02,0,.03,0,.08.03.17.05.26.05h0c.08,0,.15-.01.23-.04.02,0,.05-.02.07-.03.04-.02.08-.03.12-.05,0,0,.01-.01.02-.02,0,0,.02,0,.03-.02.07-.05.12-.11.17-.17.01-.02.02-.03.03-.05.04-.07.08-.14.1-.22,0-.01,0-.02.01-.04.02-.07.02-.14.02-.22-.58-12.89-2.7-21.67-6.65-27.49.11-.05.21-.1.32-.15,3.69-2.03,3.14-7.8,2.48-11.06-.22-1.08-.11-2.17.3-3.14,1.08-2.51,2.62-7.23,1.24-11.31,5.04-2.13,7.98-6.72,8.76-13.7ZM84.82,26.33c.24-1.25.36-2.52.39-3.8,1.21-3.25,3.63-6.17,7.33-8.9-.43,1.9-.25,3.65-.06,5.36.22,1.99.43,4.06-.33,6.45-2.45-.18-4.9.12-7.34.88ZM91.53,12.38c-2.84,2.09-4.98,4.32-6.44,6.72-.14-1.65-.39-3.23-.69-4.69,1.81-1.2,4.16-1.88,7.13-2.04ZM57.06,14.57c3.16-6.98,10.13-10.23,14.01-11.55,4.42-1.5,8.17-1.64,9.07-1.16,1.47.78,1.21,3.47,1.03,4.59-.16,1-.07,2.05.25,3.02,1.1,3.34,4.35,14.76-.1,21.66-4.65,7.2-12.82,7.5-14.76,7.46-.21-.32-.47-.58-.73-.78.05-.34.03-.7-.1-1.04-.23-.63-.73-1.12-1.37-1.33-.27-.09-.55-.12-.83-.11.12-.64-.04-1.31-.44-1.84,1.81-5.76,4.72-10.52,8.66-14.16.33-.3.35-.81.05-1.14s-.81-.35-1.14-.05c-4.06,3.75-7.06,8.61-8.97,14.45-.33-.07-.67-.07-1.01,0-.36.08-.68.24-.96.47-.08-.19-.17-.36-.28-.52,2.08-11.2,8.07-20.12,17.83-26.5.37-.24.48-.74.23-1.12-.24-.37-.74-.48-1.12-.23-9.93,6.49-16.1,15.52-18.38,26.83-.46-.13-.94-.15-1.42-.02-.15.04-.3.1-.44.17-.98-2.02-3.13-8.11.93-17.11ZM80.3,34.91c.48-.48.94-.98,1.39-1.54,3.1.4,6.75-.08,10.33-1.33-2.64,2.27-5.2,3.5-7.89,3.83-1.41-.51-2.78-.8-3.83-.96ZM64.37,40.93c-.08-.19-.18-.37-.3-.54l-.33-.56.7-.27c.22-.08.41-.2.58-.34.21.2.4.49.31.93-.09.47-.56.68-.95.78ZM61.31,42.08l-.07-1.49c-.02-.45-.41-.77-.84-.76-.44.02-.79.4-.76.85l.08,1.57c.01.29-.1.57-.32.77-.22.2-.51.29-.8.24-.22-.03-.41-.14-.56-.3,0,0,0-.01-.01-.02,0,0,0,0,0,0-.05-.05-.09-.11-.12-.17-.15-.27-.16-.58-.04-.86l1.06-2.42s0,0,0,0h0c.04-.09.06-.19.06-.28,0-.03,0-.05,0-.08,0-.07-.01-.13-.03-.2,0-.03-.02-.06-.04-.09-.03-.06-.06-.12-.1-.17-.01-.02-.02-.04-.03-.05,0-.01-.02-.01-.03-.02-.01-.01-.02-.03-.04-.04-.04-.04-.09-.06-.14-.08-.02-.01-.05-.03-.07-.04-.09-.04-.18-.06-.27-.06-.03,0-.05,0-.08,0-.07,0-.13.01-.2.03-.03.01-.07.03-.1.04-.03.02-.07.02-.1.05l-2.02,1.31c-.33.22-.77.13-.99-.2-.11-.16-.15-.36-.11-.55.04-.19.15-.36.32-.47l1.76-1.15c.31-.2.44-.59.32-.94l-.72-2.07c-.1-.28-.07-.57.06-.83s.37-.44.65-.52c.27-.07.55-.04.79.1s.42.36.49.63l.3,1.12-.39.81c-.19.4-.02.88.38,1.07.4.19.88.02,1.07-.38l.88-1.85c.1-.21.28-.35.51-.41.22-.05.45,0,.63.15.32.25.38.71.13,1.03l-1.2,1.6c-.23.31-.21.75.06,1.03.27.29.7.34,1.03.12l1.66-1.08c.21-.13.41-.1.51-.06.1.03.28.12.36.35.11.3-.05.63-.34.75l-1.6.61c-.22.08-.4.26-.47.49-.08.22-.05.47.07.68l.85,1.43s.04.06.06.09c.16.2.22.46.16.71-.06.25-.22.46-.45.57-.22.11-.49.11-.71,0-.23-.1-.39-.3-.46-.55h0ZM54.89,35.32l.38,1.09-.74.48c-.3-.29-.64-.73-.51-1.14.11-.35.53-.43.86-.43ZM18.58,8.35c8.21,2.95,14.78,7.55,19.52,13.69.16.21.4.31.64.31.17,0,.34-.05.49-.17.35-.27.42-.78.15-1.13-4.73-6.13-11.19-10.79-19.23-13.86,1.06-.26,2.57-.23,4.36.1,1.04.19,2.09.18,3.13-.04,2.93-.62,10.44-1.63,16.83,2.3,7.61,4.69,8.62,11.97,8.71,12.8-.24,2.11-.15,3.94.09,5.47-3.73-4.7-8.37-8.97-14.08-12.93-.37-.25-.87-.16-1.12.2-.25.37-.16.87.2,1.12,7.17,4.98,12.61,10.44,16.63,16.66-.14.27-.22.56-.26.86-.45.04-.93.17-1.33.45-2.43-3.43-5.34-6.14-8.69-8.04-.39-.22-.88-.08-1.1.3s-.08.88.3,1.1c3.33,1.89,6.21,4.65,8.59,8.17-.1.9.37,1.7.91,2.26-.14.23-.25.48-.3.76-.06.31-.06.63,0,.93-1.68.77-6.65,2.69-13.64,2.17-8.62-.64-15.73-7.66-17.36-12.26-.44-1.26-.75-2.64-.95-4,0,0,0,0,0,0-.35-2.31-.42-4.55-.42-5.97,0-.97-.17-1.93-.5-2.85-1.42-3.89-2-7.04-1.58-8.39ZM20.44,29.87c-3.74-2.96-8.64-5.64-14.95-8.21,6.4.42,10.84,1.83,14.04,4.41.21,1.28.5,2.59.91,3.8ZM6.37,29.91c-.82-2.69-1.62-5.27-2.88-7.31,9.34,3.65,15.65,7.51,19.69,12.01,0,0,.02.01.03.02.31.38.63.75.98,1.13-4.05,1.2-7.8,3.35-11.37,6.53-3.65-3.3-5.13-8.11-6.44-12.37ZM11.53,45.75c4.33-4.53,8.9-7.37,13.95-8.68,1.82,1.7,4.04,3.26,6.54,4.42-.73.4-1.62.96-2.6,1.73-3.97,1.85-8.62,2.3-14.2,1.36-.38-.06-.76.16-.89.53-.13.37.02.78.36.97,2.71,1.53,5.94,3.03,9.71,3.07-.34.6-.65,1.23-.95,1.91-4.2-.3-8.12-2.03-11.92-5.3ZM25.42,47.5c-2.05.14-3.96-.23-5.72-.85,2.48.08,4.78-.16,6.91-.72-.41.48-.8,1-1.19,1.56ZM38.72,81.63c.9-.53,1.83-.89,2.79-1.08,1.55-.3,4.22-1.01,7.08-2.6-2.43,7.04-6.36,14.05-11.72,20.9-.44-5.6-.05-11.25,1.17-16.84.24-.13.47-.27.68-.39ZM38.78,99.01c5.61-7.33,9.62-14.85,11.95-22.4.31-.22.62-.45.93-.7.88,2.81,2.57,5,5.06,6.55-2,6.82-7.74,12.13-17.94,16.54ZM64.31,83.38c-2.43-.36-4.47-1-6.14-1.91-.02-.02-.05-.02-.08-.04-2.66-1.49-4.33-3.7-5.08-6.67,1.27-1.18,2.48-2.57,3.55-4.25.91,3.58,2.82,6.8,5.72,9.6.15.15.36.23.56.23.15,0,.3-.04.44-.13.32-.2.45-.6.32-.95-1.2-3.28-1.78-6.54-1.76-9.71.58.12,1.21.19,1.93.19.5,0,1.02-.07,1.54-.17,1.45,3.93,1.13,8.46-.99,13.82ZM60.23,69.03c-.06,2.35.18,4.75.76,7.16-1.71-2.36-2.79-4.97-3.23-7.79.14-.28.28-.56.41-.85.46.51,1.13,1.06,2.06,1.48ZM66.87,69.17c.44-.14.88-.3,1.32-.48,8.1,6.07,15.26,14.08,21.84,24.44-10.65-4.39-17.97-8.69-22.87-13.41.92-3.89.83-7.42-.28-10.55ZM91.03,91.72c-6.4-9.97-13.36-17.79-21.19-23.8.85-.43,1.65-.89,2.35-1.32,1.55-.96,3.49-1.07,5.08-.29,2.04,1.01,4.78,1.95,7.3,1.49,3.57,5.03,5.69,12.88,6.46,23.92ZM87.8,52.29c-.55,1.27-.69,2.69-.4,4.09.46,2.27,1.21,7.73-1.68,9.33-.31.17-.64.3-.98.4,0,0,0,0,0,0-2.19.61-4.81-.3-6.74-1.25-2.08-1.03-4.63-.89-6.65.37-2.12,1.32-5.16,2.89-7.58,2.89-3.23,0-4.5-1.64-4.87-2.28,3.59-9.41.91-18.2.79-18.62-.13-.42-.58-.66-1.01-.53-.42.13-.66.59-.53,1.01.03.11,3.26,10.77-2.21,20.73-4.27,7.76-11.72,9.95-14.72,10.53-1.14.22-2.25.65-3.3,1.27-2.41,1.42-8.47,4.52-12.64,2.62-3.33-1.52-2.92-5.53-1.99-8.63.35-1.18.49-2.39.44-3.57,2.12-6.54,5.51-12.08,10.1-16.48.32-.31.33-.82.02-1.14-.31-.32-.82-.33-1.14-.02-4.09,3.93-7.27,8.73-9.48,14.29-.5-3.28-.75-8.31.93-13.55,2.57-8.01,8.63-10.91,9.88-11.44,1.66.58,3.42.98,5.25,1.12.88.07,1.72.09,2.53.09,6.31,0,10.63-1.78,12.1-2.49.22.17.46.29.72.37-10.39,10.03-17.92,19.45-22.92,28.71-.21.39-.07.88.33,1.09.12.07.25.1.38.1.29,0,.56-.15.71-.42,5-9.24,12.56-18.66,23.06-28.73-.03.45.06.9.27,1.32-3.29,3.7-5.92,8.59-8.01,14.96-.14.42.09.88.52,1.02.08.03.17.04.25.04.34,0,.66-.22.77-.55,2-6.12,4.51-10.81,7.63-14.34.23.11.47.21.74.25.14.02.27.03.41.03.63,0,1.24-.23,1.72-.66.11-.1.2-.21.29-.32.11.08.23.15.35.21.33.15.67.22,1.02.22.17,0,.33-.02.5-.06,4.13,3.94,7.08,8.5,8.77,13.59.11.34.43.55.76.55.08,0,.17-.01.25-.04.42-.14.65-.6.51-1.02-1.38-4.15-3.56-7.98-6.49-11.41,6.04,3.37,11.57,9,16.81,17.1.15.24.41.37.68.37.15,0,.3-.04.44-.13.37-.24.48-.74.24-1.11-6.23-9.63-12.89-15.89-20.34-19.1.09-.16.16-.33.21-.51.98-.17,2.17-.73,2.45-2.09.02-.09.01-.17.02-.26h.01c2.1,0,7.26-.4,11.75-3.87.76.06,2.89.3,5.04,1.1,0,0,.01,0,.02,0,2.1.78,4.21,2.1,5.1,4.3,1.47,3.63-.03,8.16-1.05,10.54ZM89.86,40.16c-.8-1.36-1.98-2.39-3.28-3.16,3.25-.97,6.37-3.19,9.62-6.85.26-.29.27-.72.03-1.03-.24-.31-.66-.4-1.01-.22-4.14,2.16-8.7,3.21-12.48,2.95.71-1.14,1.23-2.37,1.62-3.65,4.39-1.61,8.84-1.57,13.23.15-.81,6.1-3.35,9.97-7.74,11.8Z" fill="#F4F5F6"/></g><rect id="ya-underline" x="113.76" y="87.46" width="524.53" height="7.05" fill="#F4F5F6"/></svg>